<?xml version="1.0" standalone="no"?>
<!DOCTYPE svg PUBLIC "-//W3C//DTD SVG 20010904//EN"
 "http://www.w3.org/TR/2001/REC-SVG-20010904/DTD/svg10.dtd">
<svg version="1.0" xmlns="http://www.w3.org/2000/svg"
 width="2388.000000pt" height="1668.000000pt" viewBox="0 0 2388.000000 1668.000000"
 preserveAspectRatio="xMidYMid meet">

<g transform="translate(0.000000,1668.000000) scale(0.100000,-0.100000)"
fill="#000000" stroke="none">
<path d="M9450 16424 c-81 -30 -91 -38 -121 -100 l-31 -63 -10 -338 c-10 -345
-9 -374 28 -753 30 -308 96 -650 154 -795 43 -108 76 -225 90 -320 6 -44 31
-165 55 -270 42 -185 51 -250 94 -685 33 -326 43 -640 48 -1485 5 -772 5 -791
25 -834 20 -41 20 -52 12 -200 -5 -86 -9 -649 -9 -1251 0 -787 -3 -1127 -12
-1209 -12 -109 -11 -124 23 -385 46 -348 60 -489 74 -711 7 -99 23 -243 37
-320 35 -199 42 -493 18 -745 -23 -244 -28 -1405 -7 -1509 12 -57 23 -76 91
-160 43 -53 96 -125 117 -161 68 -111 111 -183 132 -226 25 -50 84 -227 102
-304 27 -124 74 -278 100 -330 16 -31 55 -92 87 -135 92 -125 153 -226 258
-425 96 -183 125 -249 170 -385 12 -38 41 -115 64 -170 23 -55 62 -155 86
-223 24 -67 74 -196 110 -287 36 -90 88 -236 116 -322 97 -308 214 -644 251
-723 14 -30 35 -76 46 -102 11 -25 39 -71 62 -102 79 -105 166 -120 307 -52
176 84 268 230 348 547 41 162 42 164 108 244 27 33 65 80 86 104 186 226 294
330 373 360 70 26 139 114 234 297 58 111 77 141 158 248 61 81 94 161 133
326 40 167 38 322 -8 575 -6 33 -33 105 -60 161 -59 124 -70 170 -71 304 0 94
-5 118 -39 222 -21 64 -52 144 -69 177 -16 33 -30 71 -30 83 0 44 -47 93 -164
172 -64 43 -138 102 -164 131 -80 87 -139 233 -152 375 -4 47 -13 98 -19 113
-6 15 -31 103 -56 195 -51 193 -56 247 -37 487 30 391 45 693 48 988 3 318 7
359 49 547 8 36 21 180 30 320 9 140 21 273 26 295 5 22 9 93 9 157 0 170 60
544 114 718 13 41 27 105 31 141 l7 66 -93 94 c-105 107 -180 198 -238 290
-22 35 -44 69 -48 74 -40 51 -43 65 -37 148 7 100 37 228 75 322 32 82 49 210
49 378 0 140 29 352 70 517 37 146 49 292 30 369 -21 88 -142 201 -436 408
-71 51 -165 122 -208 160 -44 37 -98 82 -122 100 -69 52 -314 373 -372 488
-17 34 -47 104 -67 155 -129 332 -135 342 -341 560 -83 89 -102 119 -193 316
-38 82 -88 183 -112 224 -23 41 -64 117 -92 169 -27 52 -72 126 -100 165 -113
158 -127 219 -147 648 -5 109 -15 228 -21 265 -6 38 -14 241 -19 453 -8 379
-8 387 -38 510 -64 270 -120 414 -189 491 -48 53 -195 157 -348 246 -66 39
-148 88 -183 109 -34 21 -74 45 -88 52 -26 14 -158 26 -184 16z m187 -95 c35
-23 63 -45 63 -50 0 -5 6 -9 14 -9 37 0 396 -229 469 -298 72 -70 111 -164
173 -417 13 -55 29 -116 35 -135 6 -20 15 -192 19 -410 5 -206 14 -408 19
-448 6 -40 15 -163 21 -275 10 -208 33 -439 48 -492 15 -49 51 -115 101 -185
60 -82 253 -437 326 -598 78 -171 104 -212 223 -337 58 -60 121 -135 142 -165
37 -54 50 -85 146 -325 62 -157 100 -225 205 -371 116 -160 204 -264 248 -293
20 -13 63 -49 96 -80 79 -74 138 -122 263 -210 150 -106 290 -220 344 -280 36
-40 49 -63 54 -98 11 -72 -2 -188 -35 -317 -48 -186 -72 -368 -81 -606 -7
-212 -8 -216 -43 -315 -47 -131 -67 -234 -67 -343 0 -82 2 -92 30 -134 16 -25
56 -74 88 -109 32 -35 73 -86 92 -114 39 -57 128 -173 176 -226 30 -35 31 -39
23 -85 -5 -27 -20 -85 -34 -129 -42 -135 -104 -540 -105 -680 0 -55 -6 -147
-14 -205 -8 -58 -20 -199 -26 -315 -10 -189 -20 -275 -49 -415 -13 -64 -23
-257 -26 -535 -2 -132 -8 -294 -14 -360 -15 -162 -36 -574 -35 -716 0 -82 5
-128 16 -160 9 -24 24 -73 33 -109 9 -36 29 -103 45 -150 22 -69 28 -103 28
-170 -2 -153 77 -338 186 -438 29 -26 99 -78 157 -116 115 -77 128 -90 129
-126 0 -14 12 -50 26 -80 15 -30 47 -100 71 -155 l45 -100 4 -148 c5 -162 12
-193 74 -322 60 -128 71 -163 86 -280 23 -184 19 -269 -22 -434 -39 -159 -67
-231 -111 -282 -59 -69 -125 -174 -182 -287 -81 -160 -122 -209 -230 -267 -77
-41 -106 -64 -171 -135 -143 -157 -330 -384 -350 -425 -10 -22 -26 -76 -35
-120 -44 -220 -122 -392 -218 -481 -58 -54 -183 -124 -222 -124 -42 0 -104 42
-138 93 -43 65 -77 132 -77 151 0 8 -16 52 -36 98 -54 122 -128 328 -193 538
-59 187 -94 289 -151 435 -18 44 -56 148 -86 230 -30 83 -73 193 -94 245 -22
52 -64 165 -94 250 -30 85 -78 200 -106 255 -28 55 -68 132 -88 170 -55 108
-150 262 -215 350 -95 128 -121 188 -177 410 -40 158 -76 271 -111 345 -55
119 -171 299 -255 400 -68 81 -86 109 -95 149 -18 83 -5 1317 16 1511 21 202
13 562 -15 685 -18 80 -25 144 -55 525 -16 200 -21 244 -56 510 -41 311 -43
335 -28 454 18 146 21 2659 3 2691 -8 14 -13 273 -17 855 -7 899 -16 1193 -46
1469 -11 97 -25 235 -31 306 -7 75 -26 194 -46 280 -19 83 -48 218 -64 301
-30 163 -58 266 -96 357 -54 127 -118 456 -155 792 -27 240 -43 921 -24 1010
28 134 58 164 164 165 47 0 63 -5 118 -41z"/>
</g>
</svg>
